<?xml version="1.0" standalone="no"?>
<!DOCTYPE svg PUBLIC "-//W3C//DTD SVG 20010904//EN"
 "http://www.w3.org/TR/2001/REC-SVG-20010904/DTD/svg10.dtd">
<svg version="1.0" xmlns="http://www.w3.org/2000/svg"
 width="1004.000000pt" height="1004.000000pt" viewBox="0 0 1004.000000 1004.000000"
 preserveAspectRatio="xMidYMid meet">
<metadata>
Created by potrace 1.14, written by Peter Selinger 2001-2017
</metadata>
<g transform="translate(0.000000,1004.000000) scale(0.100000,-0.100000)"
fill="#000000" stroke="none">
<path d="M7737 6104 c-1 -1 -24 -4 -52 -7 -215 -23 -426 -136 -557 -297 -121
-150 -169 -387 -119 -589 143 -573 964 -744 1424 -298 26 25 47 48 47 51 0 2
-21 17 -47 34 -119 75 -235 83 -397 27 -115 -40 -140 -44 -241 -46 -182 -2
-337 88 -408 238 -27 57 -32 81 -34 150 -6 241 165 408 427 418 88 4 144 -7
238 -44 28 -11 67 -24 85 -27 108 -21 244 3 329 57 55 36 55 34 -21 108 -147
140 -358 219 -604 225 -37 1 -68 1 -70 0z"/>
<path d="M2499 6096 c-2 -2 -30 -6 -62 -10 -221 -23 -392 -129 -444 -274 -30
-84 -27 -205 7 -276 76 -158 256 -238 720 -319 115 -21 224 -69 243 -109 29
-59 -5 -108 -95 -139 -58 -19 -244 -25 -328 -9 -25 4 -58 10 -75 13 -16 3 -75
17 -130 32 -129 35 -206 32 -298 -13 -77 -38 -146 -105 -132 -128 33 -51 295
-153 460 -178 22 -4 54 -8 70 -11 72 -11 137 -16 240 -15 148 1 172 4 358 45
49 11 170 80 215 122 72 68 106 145 105 243 0 97 -14 146 -61 208 -62 85 -183
151 -359 196 -60 16 -65 16 -203 41 -138 25 -142 25 -205 41 -126 33 -175 66
-175 120 0 126 248 169 535 92 163 -43 262 -37 359 23 57 36 111 93 101 109
-8 12 -124 72 -196 100 -71 28 -205 63 -294 76 -22 3 -51 8 -65 10 -33 6 -287
14 -291 10z"/>
<path d="M436 5389 l-348 -691 53 7 c93 11 111 15 179 42 74 30 130 65 187
120 75 72 81 83 340 595 57 114 108 210 111 212 4 2 92 -163 196 -367 104
-205 201 -388 215 -407 88 -119 218 -185 383 -196 l78 -5 -13 28 c-6 15 -161
325 -344 688 l-332 660 -178 3 -178 2 -349 -691z"/>
<path d="M4587 6073 c-3 -5 -118 -233 -257 -508 -139 -275 -295 -582 -346
-683 l-93 -183 62 6 c170 17 339 113 428 241 16 24 105 191 196 371 91 181
172 336 179 347 11 16 21 3 87 -130 161 -321 280 -550 308 -590 63 -92 181
-176 299 -213 71 -22 180 -37 180 -24 0 6 -270 546 -640 1278 l-45 90 -177 3
c-97 1 -179 -1 -181 -5z"/>
<path d="M3459 6058 c-1 -2 -2 -63 -3 -135 -1 -84 2 -134 9 -136 5 -2 84 -3
175 -3 l165 1 1 138 0 137 -173 0 c-95 0 -174 -1 -174 -2z"/>
<path d="M5494 6018 c14 -89 67 -158 157 -204 l54 -27 326 -2 c313 -1 327 -2
370 -23 53 -27 79 -61 86 -111 10 -74 -45 -140 -132 -158 -22 -5 -226 -8 -452
-8 -412 0 -413 0 -413 -21 0 -39 31 -112 66 -152 19 -23 60 -53 92 -69 57 -28
58 -28 289 -31 l233 -3 22 -32 c59 -84 344 -463 352 -469 6 -4 106 -6 223 -6
195 1 212 2 200 17 -8 9 -107 129 -220 268 l-206 252 43 20 c142 62 234 197
241 353 11 208 -117 377 -325 432 -44 11 -151 15 -534 15 l-479 1 7 -42z"/>
<path d="M8635 6048 c-2 -7 -3 -312 -2 -678 l2 -665 173 -1 c168 -1 172 0 173
20 0 12 1 134 1 271 l1 250 161 1 c89 1 173 3 187 7 103 22 193 119 213 230
l7 37 -285 0 -284 0 1 268 1 267 -172 3 c-133 2 -173 0 -177 -10z"/>
<path d="M9603 5381 l0 -679 174 0 173 1 0 679 0 678 -174 0 -174 0 1 -679z"/>
<path d="M3456 5571 c-1 -3 -2 -199 -2 -436 l1 -430 175 -1 175 -1 0 438 0
438 -173 -1 c-95 -1 -174 -4 -176 -7z"/>
<path d="M7740 5570 c-161 -29 -226 -205 -117 -314 109 -109 306 -76 363 60
16 39 11 111 -11 154 -37 72 -142 116 -235 100z"/>
<path d="M6615 4527 c-13 -10 -16 -21 -11 -40 8 -34 49 -46 75 -23 23 21 21
44 -4 62 -24 17 -36 18 -60 1z"/>
<path d="M8118 4529 c-22 -12 -23 -42 -2 -63 31 -32 77 -14 77 29 0 41 -36 57
-75 34z"/>
<path d="M110 4283 l0 -233 39 0 38 0 -2 105 c-1 68 2 105 9 107 6 2 49 4 96
3 67 0 86 3 91 15 14 34 -1 40 -100 40 l-97 0 1 69 0 69 100 0 c147 0 142 -1
140 22 -1 11 -5 23 -9 27 -4 4 -75 8 -157 8 l-149 1 0 -233z"/>
<path d="M5786 4511 c-2 -3 -4 -108 -4 -233 l0 -228 154 0 154 0 0 31 c0 28
-2 30 -32 29 -18 -1 -71 -2 -118 -1 l-86 1 1 200 c0 110 -2 200 -5 201 -25 5
-61 5 -64 0z"/>
<path d="M1872 4491 c-9 -5 -16 -43 -21 -103 -1 -5 -4 -7 -8 -7 -5 1 -20 1
-35 0 -23 -1 -28 -6 -28 -26 0 -22 4 -25 35 -25 l35 0 0 -100 c0 -141 22 -177
113 -188 41 -4 97 14 97 32 -1 29 -17 37 -58 28 -34 -8 -44 -7 -61 10 -19 16
-21 31 -21 118 l0 100 54 0 c50 0 54 1 54 25 0 26 -12 30 -80 25 -27 -1 -28 0
-28 53 0 45 -3 56 -19 60 -10 2 -23 2 -29 -2z"/>
<path d="M3650 4399 c-20 -4 -47 -21 -62 -38 l-28 -31 0 33 c0 30 -3 33 -30
32 -16 0 -31 -2 -31 -5 -1 -3 -2 -80 -3 -172 l-2 -168 36 0 35 0 -1 94 c-2
141 30 196 115 196 23 0 31 6 39 29 9 26 8 29 -11 33 -12 2 -38 1 -57 -3z"/>
<path d="M4326 4395 c-55 -14 -78 -34 -105 -87 -41 -84 -7 -213 67 -248 35
-17 141 -21 189 -8 47 13 45 11 38 41 -6 23 -9 24 -38 16 -51 -15 -125 -13
-152 5 -21 14 -61 73 -53 78 2 0 61 2 132 3 140 3 146 5 140 61 -10 110 -102
168 -218 139z m116 -68 c15 -12 30 -34 34 -49 l6 -28 -106 0 c-58 0 -106 3
-106 8 0 18 42 74 63 82 39 16 81 11 109 -13z"/>
<path d="M8905 4394 c-20 -6 -45 -20 -55 -29 -17 -16 -19 -15 -22 7 -2 18 -9
23 -33 23 l-30 0 -3 -172 -2 -173 36 0 c33 0 35 2 34 28 -1 15 -2 67 -1 115 1
85 2 89 32 117 52 47 124 49 145 3 4 -10 9 -70 10 -133 1 -63 3 -118 3 -122 1
-5 16 -8 34 -8 l33 0 -2 133 c0 72 -6 144 -12 159 -20 48 -103 74 -167 52z"/>
<path d="M9778 4400 c-46 -8 -79 -30 -114 -76 -37 -48 -40 -141 -7 -194 43
-70 147 -101 217 -65 37 20 36 20 36 -19 0 -54 -35 -87 -96 -93 -34 -4 -60 0
-80 10 -28 14 -31 14 -42 -4 -7 -10 -12 -23 -12 -29 0 -33 157 -44 221 -15 28
13 44 30 59 60 19 39 20 58 18 231 l-3 188 -27 1 c-18 1 -28 -3 -28 -12 0 -11
-4 -11 -22 -2 -35 19 -80 26 -120 19z m117 -70 c11 -9 15 -34 15 -101 0 -83
-2 -90 -24 -104 -22 -15 -52 -20 -98 -16 -25 2 -74 56 -81 89 -9 44 10 97 43
126 25 20 39 24 80 22 27 -2 57 -9 65 -16z"/>
<path d="M931 4391 c-7 -5 -10 -50 -8 -144 3 -127 5 -139 27 -162 46 -49 138
-56 205 -15 29 17 31 17 48 0 29 -28 67 -32 77 -6 6 16 3 25 -13 38 -20 15
-21 26 -21 152 0 75 -3 136 -6 137 -3 0 -13 2 -24 4 -39 8 -42 -1 -41 -132 l0
-126 -30 -19 c-30 -18 -100 -24 -121 -10 -25 16 -32 53 -30 165 1 72 -3 117
-9 118 -5 0 -17 2 -26 4 -9 1 -21 0 -28 -4z"/>
<path d="M2585 4390 c-2 -3 -3 -62 -3 -130 0 -143 11 -180 62 -204 43 -20 121
-14 169 14 20 12 37 18 37 12 0 -13 60 -41 76 -35 23 8 23 41 0 56 -20 14 -21
23 -21 148 0 74 -4 137 -8 140 -4 3 -20 5 -35 4 l-27 -1 0 -130 -1 -129 -34
-17 c-36 -18 -96 -24 -116 -10 -23 15 -35 55 -33 115 0 34 1 87 0 118 l-1 57
-31 -2 c-17 0 -32 -3 -34 -6z"/>
<path d="M6615 4392 c-3 -3 -5 -81 -4 -174 l0 -168 37 0 37 0 -1 165 c0 91 -4
168 -8 172 -8 9 -54 12 -61 5z"/>
<path d="M7233 4390 c-13 -5 -23 -12 -23 -16 0 -3 19 -45 41 -93 23 -47 57
-119 75 -158 33 -72 34 -73 71 -73 36 0 40 3 63 53 13 28 48 102 77 162 28 61
49 113 45 117 -4 4 -18 9 -31 10 -22 3 -30 -10 -85 -129 -34 -73 -63 -132 -66
-133 -3 0 -32 59 -65 132 -33 72 -65 133 -70 134 -6 1 -20 -1 -32 -6z"/>
<path d="M8119 4396 c-1 -1 -2 -79 -3 -174 l-2 -173 35 3 34 3 0 162 c0 90 -3
166 -7 170 -5 6 -52 13 -57 9z"/>
</g>
</svg>
